Ostrich_Walking_GRF_Data																		
version=1																		
nRows=83																		
nColumns=19																		
inDegrees=yes																		
endheader																		
time	ground_force_vx	ground_force_vy	ground_force_vz	ground_force_px	ground_force_py	ground_force_pz	1_ground_force_vx	1_ground_force_vy	1_ground_force_vz	1_ground_force_px	1_ground_force_py	1_ground_force_pz	ground_torque_x	ground_torque_y	ground_torque_z	1_ground_torque_x	1_ground_torque_y	1_ground_torque_z
-0.035	0	0	0	0	0	0	-203.3303	846.5902333	-8.637933333	0.146116667	-0.019710667	-0.004596233	0	0	0	0	-5.343414271	0
-0.03	0	0	0	0	0	0	-198.8696	843.8399833	-9.594933333	0.147101667	-0.019838667	-0.004814083	0	0	0	0	-5.533465565	0
-0.025	0	0	0	0	0	0	-194.4089	841.0897333	-10.55193333	0.148086667	-0.019966667	-0.005031933	0	0	0	0	-5.72351686	0
-0.02	0	0	0	0	0	0	-189.9482	838.3394833	-11.50893333	0.149071667	-0.020094667	-0.005249783	0	0	0	0	-5.913568154	0
-0.015	0	0	0	0	0	0	-185.4875	835.5892333	-12.46593333	0.150056667	-0.020222667	-0.005467633	0	0	0	0	-6.103619448	0
-0.01	0	0	0	0	0	0	-181.0268	832.8389833	-13.42293333	0.151041667	-0.020350667	-0.005685483	0	0	0	0	-6.293670743	0
-0.005	0	0	0	0	0	0	-176.5661	830.0887333	-14.37993333	0.152026667	-0.020478667	-0.005903333	0	0	0	0	-6.483722037	0
0	0	0	0	0	0	0	-172.0781	827.1454	-15.318	0.1536	-0.020446	-0.0061679	0	0	0	0	-6.670751654	0
0.005	0	0	0	0	0	0	-167.6993	824.9744	-16.3318	0.15282	-0.021056	-0.0062456	0	0	0	0	-6.869867981	0
0.01	0	0	0	0	0	0	-163.1567	821.6449	-17.232	0.15557	-0.020702	-0.0066036	0	0	0	0	-7.050854243	0
0.015	0	0	0	0	0	0	-158.473	817.2154	-17.9918	0.15512	-0.021182	-0.006518	0	0	0	0	-7.212894035	0
0.02	0	0	0	0	0	0	-153.6891	811.8072	-18.579	0.15519	-0.021727	-0.0059227	0	0	0	0	-7.353126817	0
0.025	0	0	0	0	0	0	-148.839	805.5672	-18.9647	0.15506	-0.021862	-0.0065709	0	0	0	0	-7.462113193	0
0.03	0	0	0	0	0	0	-143.9684	798.6182	-19.1241	0.1573	-0.022021	-0.006239	0	0	0	0	-7.527048044	0
0.035	0	0	0	0	0	0	-139.1183	791.0627	-19.0374	0.15721	-0.022496	-0.0059483	0	0	0	0	-7.538425231	0
0.04	0	0	0	0	0	0	-134.3375	783.0024	-18.6944	0.15811	-0.022194	-0.0071743	0	0	0	0	-7.488502677	0
0.045	0	0	0	0	0	0	-129.7171	774.551	-18.1263	0.15719	-0.023044	-0.0065527	0	0	0	0	-7.372067315	0
0.05	0	0	0	0	0	0	-125.3512	765.8292	-17.4227	0.15723	-0.023565	-0.0061239	0	0	0	0	-7.196683225	0
0.055	0	0	0	0	0	0	-121.2931	757.0032	-16.7842	0.15828	-0.023955	-0.0057836	0	0	0	0	-6.994725956	0
0.06	0	0	0	0	0	0	-117.3807	748.2364	-16.3875	0.15962	-0.023997	-0.0060467	0	0	0	0	-6.809622644	0
0.065	0	0	0	0	0	0	-113.2799	739.5072	-16.2334	0.15793	-0.02479	-0.0055372	0	0	0	0	-6.66958068	0
0.07	0	0	0	0	0	0	-109.0094	730.7977	-16.177	0.15732	-0.025414	-0.0055245	0	0	0	0	-6.570673593	0
0.075	0	0	0	0	0	0	-104.8144	722.149	-16.0797	0.15893	-0.025823	-0.0046038	0	0	0	0	-6.493421975	0
0.08	0	0	0	0	0	0	-100.7713	713.5272	-15.8846	0.15786	-0.026167	-0.0055415	0	0	0	0	-6.415226922	0
0.085	0	0	0	0	0	0	-96.8603	704.8962	-15.571	0.15889	-0.026609	-0.004663	0	0	0	0	-6.317019426	0
0.09	0	0	0	0	0	0	-93.0648	696.2477	-15.1242	0.15789	-0.027154	-0.0047144	0	0	0	0	-6.185243322	0
0.095	0	0	0	0	0	0	-89.4041	687.5972	-14.5039	0.15935	-0.027268	-0.0046421	0	0	0	0	-6.015393148	0
0.1	0	0	0	0	0	0	-85.8896	678.9857	-13.6566	0.15869	-0.027777	-0.0044981	0	0	0	0	-5.810515266	0
0.105	0	0	0	0	0	0	-82.4803	670.4322	-12.5952	0.15935	-0.027765	-0.0044951	0	0	0	0	-5.574291013	0
0.11	0	0	0	0	0	0	-79.1446	661.9472	-11.3783	0.16047	-0.028052	-0.0035158	0	0	0	0	-5.312070179	0
0.115	0	0	0	0	0	0	-75.8824	653.5827	-10.0404	0.15922	-0.02843	-0.0036022	0	0	0	0	-5.030364253	0
0.12	0	0	0	0	0	0	-72.6977	645.4015	-8.5791	0.16056	-0.028676	-0.0035858	0	0	0	0	-4.734717089	0
0.125	0	0	0	0	0	0	-69.5927	637.4515	-6.9853	0.16077	-0.02891	-0.0036114	0	0	0	0	-4.431314114	0
0.13	0	0	0	0	0	0	-66.5723	629.7647	-5.2653	0.15987	-0.02928	-0.003627	0	0	0	0	-4.124738314	0
0.135	0	0	0	0	0	0	-63.6395	622.3758	-3.4379	0.16077	-0.029347	-0.0034034	0	0	0	0	-3.817032928	0
0.14	0	0	0	0	0	0	-60.7939	615.3329	-1.5252	0.16027	-0.029756	-0.0034305	0	0	0	0	-3.509786636	0
0.145	0	0	0	0	0	0	-58.0343	608.6668	0.452	0.16116	-0.029814	-0.0032212	0	0	0	0	-3.209574662	0
0.15	0	0	0	0	0	0	-55.3462	602.398	2.4622	0.16144	-0.029746	-0.0038609	0	0	0	0	-2.917353355	0
0.155	0	0	0	0	0	0	-52.7163	596.5458	4.4584	0.16233	-0.030026	-0.0032973	0	0	0	0	-2.639702338	0
0.16	0	0	0	0	0	0	-50.1338	591.1047	6.3903	0.16128	-0.030305	-0.0033096	0	0	0	0	-2.378062358	0
0.165	0	0	0	0	0	0	-47.5894	586.0544	8.2092	0.15998	-0.030263	-0.0039984	0	0	0	0	-2.134448396	0
0.17	0	0	0	0	0	0	-45.0749	581.3617	9.879	0.16104	-0.030365	-0.0038875	0	0	0	0	-1.908773334	0
0.175	0	0	0	0	0	0	-42.5883	577.018	11.3871	0.15998	-0.030752	-0.0038646	0	0	0	0	-1.701486702	0
0.18	0	0	0	0	0	0	-40.1348	573.0349	12.7403	0.16028	-0.030898	-0.0033193	0	0	0	0	-1.514530773	0
0.185	0	0	0	0	0	0	-37.7196	569.4198	13.9634	0.16058	-0.030922	-0.0031211	0	0	0	0	-1.344047449	0
0.19	0	0	0	0	0	0	-35.3513	566.1585	15.0864	0.16149	-0.030353	-0.0044937	0	0	0	0	-1.182920433	0
0.195	0	0	0	0	0	0	-33.0354	563.2447	16.1124	0.16005	-0.030473	-0.0044969	0	0	0	0	-1.027114037	0
0.2	0	0	0	0	0	0	-30.7692	560.6797	17.0054	0.1609	-0.030494	-0.0044299	0	0	0	0	-0.87818599	0
0.205	0	0	0	0	0	0	-28.5433	558.4589	17.7103	0.15963	-0.030394	-0.0052868	0	0	0	0	-0.739079758	0
0.21	0	0	0	0	0	0	-26.3503	556.5743	18.211	0.16014	-0.030528	-0.0047176	0	0	0	0	-0.614903603	0
0.215	0	0	0	0	0	0	-24.184	555.045	18.5563	0.15875	-0.030703	-0.0048651	0	0	0	0	-0.502506813	0
0.22	0	0	0	0	0	0	-22.0413	553.9382	18.82	0.1595	-0.030674	-0.0047177	0	0	0	0	-0.399485756	0
0.225	0	0	0	0	0	0	-19.919	553.3073	19.0491	0.15817	-0.030754	-0.0046752	0	0	0	0	-0.304063567	0
0.23	0	0	0	0	0	0	-17.8072	553.1573	19.2492	0.16044	-0.030566	-0.0044428	0	0	0	0	-0.212826453	0
0.235	0	0	0	0	0	0	-15.695	553.471	19.41	0.1591	-0.030779	-0.0045549	0	0	0	0	-0.122347499	0
0.24	0	0	0	0	0	0	-13.5753	554.2563	19.533	0.15949	-0.030744	-0.0044417	0	0	0	0	-0.0278853	0
0.245	0	0	0	0	0	0	-11.4533	555.5437	19.631	0.15782	-0.030905	-0.0046011	0	0	0	0	0.072875853	0
0.25	0	0	0	0	0	0	-9.3483	557.333	19.706	0.15874	-0.030909	-0.0044663	0	0	0	0	0.181603919	0
0.255	0	0	0	0	0	0	-7.2643	559.6033	19.7593	0.15676	-0.031115	-0.0048134	0	0	0	0	0.296506603	0
0.26	0	0	0	0	0	0	-5.1851	562.3205	19.806	0.15715	-0.031104	-0.0046993	0	0	0	0	0.414183536	0
0.265	0	0	0	0	0	0	-3.0822	565.4532	19.8704	0.15552	-0.031308	-0.004785	0	0	0	0	0.532573255	0
0.27	0	0	0	0	0	0	-0.9221	568.982	19.965	0.15635	-0.031323	-0.0047322	0	0	0	0	0.648345484	0
0.275	0	0	0	0	0	0	1.3157	572.9049	20.0873	0.15451	-0.031469	-0.0048016	0	0	0	0	0.762884286	0
0.28	0	0	0	0	0	0	3.6382	577.2332	20.2254	0.15636	-0.031344	-0.0045235	0	0	0	0	0.875311408	0
0.285	0	0	0	0	0	0	6.0469	581.9543	20.362	0.15463	-0.031567	-0.0046544	0	0	0	0	0.98322454	0
0.29	0	0	0	0	0	0	8.5449	587.0385	20.4974	0.15501	-0.031509	-0.0045159	0	0	0	0	1.085200661	0
0.295	0	0	0	0	0	0	11.141	592.4693	20.6532	0.15533	-0.03134	-0.0048434	0	0	0	0	1.182462186	0
0.3	0	0	0	0	0	0	13.8327	598.2388	20.8471	0.15532	-0.031419	-0.0049643	0	0	0	0	1.278209	0
0.305	0	0	0	0	0	0	16.5988	604.3133	21.085	0.15569	-0.031388	-0.0048357	0	0	0	0	1.376036227	0
0.31	0	0	0	0	0	0	19.4054	610.6359	21.3402	0.15577	-0.031393	-0.0047454	0	0	0	0	1.478447959	0
0.315	0	0	0	0	0	0	22.2135	617.1482	21.5731	0.15557	-0.031367	-0.0045663	0	0	0	0	1.583675305	0
0.32	0	0	0	0	0	0	24.9968	623.793	21.763	0.15616	-0.031397	-0.0044907	0	0	0	0	1.688940856	0
0.325	0	0	0	0	0	0	27.7585	630.528	21.9223	0.15595	-0.031428	-0.0045782	0	0	0	0	1.793096634	0
0.33	0	0	0	0	0	0	30.5122	637.308	22.0914	0.15629	-0.031799	-0.0037871	0	0	0	0	1.895102562	0
0.335	0	0	0	0	0	0	33.2783	644.0837	22.2933	0.15785	-0.031523	-0.0038924	0	0	0	0	1.99325895	0
0.34	0	0	0	0	0	0	36.0734	650.8124	22.515	0.15807	-0.031269	-0.004557	0	0	0	0	2.085335812	0
0.345	0	0	0	0	0	0	38.9037	657.4627	22.7282	0.15601	-0.031499	-0.0048995	0	0	0	0	2.171228726	0
0.35	0	0	0	0	0	0	41.773	664.0163	22.9251	0.15643	-0.031465	-0.0047933	0	0	0	0	2.248389753	0
0.355	0	0	0	0	0	0	44.6981	670.4945	23.1192	0.1562	-0.031426	-0.0046235	0	0	0	0	2.314085174	0
0.36	0	0	0	0	0	0	47.6919	676.9229	23.3331	0.15629	-0.031308	-0.0051476	0	0	0	0	2.36922642	0
0.365	0	0	0	0	0	0	50.7577	683.3125	23.582	0.15703	-0.03123	-0.0050584	0	0	0	0	2.416012534	0
0.37	0	0	0	0	0	0	53.8977	689.6647	23.8733	0.15882	-0.030834	-0.0047029	0	0	0	0	2.45681932	0
0.375	0	0	0	0	0	0	57.1116	695.9878	24.2113	0.15726	-0.03049	-0.0055238	0	0	0	0	2.492855292	0
